<svg width="91" height="91" viewBox="0 0 91 91" fill="none" xmlns="http://www.w3.org/2000/svg">
<path d="M10.6641 74.8262C16.5446 74.8262 21.3281 70.0426 21.3281 64.1621C21.3281 63.0422 21.1539 61.9633 20.8324 60.949L36.4217 49.9163C38.803 52.1359 41.9946 53.498 45.5 53.498C45.843 53.498 46.1818 53.4807 46.5185 53.455L51.8554 72.2796C49.5983 74.236 48.166 77.1208 48.166 80.3359C48.166 86.2164 52.9496 91 58.8301 91C64.7106 91 69.4941 86.2164 69.4941 80.3359C69.4941 74.4554 64.7106 69.6719 58.8301 69.6719C58.1073 69.6719 57.4013 69.7448 56.7181 69.8829L51.6457 51.9908C54.2013 50.6571 56.2751 48.5208 57.5248 45.9166L69.7017 48.9276C70.0947 54.4534 74.7123 58.8301 80.3359 58.8301C86.2164 58.8301 91 54.0465 91 48.166C91 42.2855 86.2164 37.502 80.3359 37.502C76.0599 37.502 72.3664 40.0326 70.6675 43.6741L58.8155 40.7428C58.8238 40.5519 58.8301 40.361 58.8301 40.168C58.8301 37.0187 57.7297 34.1229 55.8968 31.8394L69.3907 15.5011C70.2537 15.8211 71.1868 15.9961 72.1602 15.9961C76.5702 15.9961 80.1582 12.4081 80.1582 7.99805C80.1582 3.58801 76.5702 0 72.1602 0C67.7501 0 64.1621 3.58801 64.1621 7.99805C64.1621 9.49282 64.5752 10.8925 65.2917 12.0908L51.8019 28.425C49.9239 27.4134 47.7779 26.8379 45.5 26.8379C43.2235 26.8379 41.0782 27.4128 39.2015 28.4236L29.9413 17.1771C31.3368 15.374 32.1699 13.1149 32.1699 10.6641C32.1699 4.78355 27.3864 0 21.5059 0C15.6254 0 10.8418 4.78355 10.8418 10.6641C10.8418 16.5446 15.6254 21.3281 21.5059 21.3281C23.0062 21.3281 24.435 21.015 25.7312 20.4533L35.1053 31.8367C33.271 34.1208 32.1699 37.0173 32.1699 40.168C32.1699 42.0939 32.5837 43.9233 33.3217 45.5778L17.9928 56.4265C16.0801 54.6137 13.5009 53.498 10.6641 53.498C4.78355 53.498 0 58.2816 0 64.1621C0 70.0426 4.78355 74.8262 10.6641 74.8262ZM64.1621 80.3359C64.1621 83.2762 61.7703 85.668 58.8301 85.668C55.8898 85.668 53.498 83.2762 53.498 80.3359C53.498 77.3957 55.8898 75.0039 58.8301 75.0039C61.7703 75.0039 64.1621 77.3957 64.1621 80.3359ZM80.3359 42.834C83.2762 42.834 85.668 45.2258 85.668 48.166C85.668 51.1063 83.2762 53.498 80.3359 53.498C77.3957 53.498 75.0039 51.1063 75.0039 48.166C75.0039 45.2258 77.3957 42.834 80.3359 42.834ZM72.1602 5.33203C73.6299 5.33203 74.8262 6.52827 74.8262 7.99805C74.8262 9.46783 73.6299 10.6641 72.1602 10.6641C70.6904 10.6641 69.4941 9.46783 69.4941 7.99805C69.4941 6.52827 70.6904 5.33203 72.1602 5.33203ZM53.498 40.168C53.498 44.578 49.91 48.166 45.5 48.166C41.09 48.166 37.502 44.578 37.502 40.168C37.502 35.7579 41.09 32.1699 45.5 32.1699C49.91 32.1699 53.498 35.7579 53.498 40.168ZM16.1738 10.6641C16.1738 7.72381 18.5656 5.33203 21.5059 5.33203C24.4461 5.33203 26.8379 7.72381 26.8379 10.6641C26.8379 13.6043 24.4461 15.9961 21.5059 15.9961C18.5656 15.9961 16.1738 13.6043 16.1738 10.6641ZM10.6641 58.8301C13.6043 58.8301 15.9961 61.2219 15.9961 64.1621C15.9961 67.1024 13.6043 69.4941 10.6641 69.4941C7.72381 69.4941 5.33203 67.1024 5.33203 64.1621C5.33203 61.2219 7.72381 58.8301 10.6641 58.8301Z" fill="#330A8B"/>
</svg>
