<svg width="60" height="57" viewBox="0 0 60 57" fill="none" xmlns="http://www.w3.org/2000/svg">
<g clip-path="url(#clip0)">
<path d="M19.5536 26.1306L6.69645 18.7225C0.26788 14.8163 -1.87498 6.46531 1.87502 0L26.384 14.2776C29.5982 16.1633 30.8036 20.3388 28.9286 23.5714C26.9197 26.8041 22.7679 28.0163 19.5536 26.1306Z" fill="#C00F4F"/>
<path d="M14.8661 53.8775C5.49108 48.4897 2.2768 36.3673 7.63394 26.9387L17.8125 9.29382L50.8929 28.555C51.2947 28.8244 51.5625 29.3632 51.2947 29.902L41.6518 46.7387C36.2947 56.0326 24.2411 59.2652 14.8661 53.8775Z" fill="#DC2064"/>
<path d="M49.8215 33.9428L36.9643 26.5347C30.5357 22.7632 28.2589 14.4122 32.0089 7.9469L56.5179 22.2245C59.7322 24.1102 60.9375 28.2857 59.0625 31.5183C57.1875 34.6163 53.0357 35.8285 49.8215 33.9428Z" fill="#C00F4F"/>
</g>
<defs>
<clipPath id="clip0">
<rect width="60" height="56.5714" fill="white"/>
</clipPath>
</defs>
</svg>
