<svg width="96" height="74" viewBox="0 0 96 74" fill="none" xmlns="http://www.w3.org/2000/svg">
<path d="M62.7763 32.3217L41.5677 20.6228C40.3482 19.9502 38.9068 19.9753 37.7115 20.6893C36.5155 21.404 35.8021 22.6667 35.8021 24.0681V47.2649C35.8021 48.6597 36.5111 49.9201 37.6991 50.6356C38.3194 51.0093 39.0072 51.1968 39.6964 51.1968C40.3277 51.1968 40.9605 51.0395 41.5428 50.7235L62.7522 39.2262C64.0112 38.5432 64.7971 37.2238 64.8029 35.7817C64.8081 34.3397 64.0317 33.0143 62.7763 32.3217ZM41.4278 44.3469V27.0098L57.2788 35.7537L41.4278 44.3469Z" fill="#330A8B"/>
<path d="M95.2936 17.3009L95.2892 17.2566C95.2079 16.4776 94.3986 9.54869 91.0573 6.02442C87.1952 1.87917 82.8168 1.3756 80.7111 1.13415C80.5368 1.11421 80.3771 1.09575 80.2343 1.07655L80.0666 1.05883C67.3752 0.128478 48.2085 0.00147675 48.0167 0.000738377L47.9998 0L47.983 0.000738377C47.7911 0.00147675 28.6244 0.128478 15.8188 1.05883L15.6496 1.07655C15.5134 1.09501 15.3632 1.112 15.1999 1.13119C13.1184 1.37338 8.78683 1.87769 4.9138 6.17283C1.73144 9.65944 0.81152 16.44 0.717038 17.202L0.706052 17.3009C0.677487 17.625 0 25.3418 0 33.0889V40.3309C0 48.0779 0.677487 55.7947 0.706052 56.1196L0.711179 56.1683C0.792477 56.9347 1.60107 63.7367 4.92698 67.2624C8.55832 71.2689 13.1498 71.799 15.6196 72.084C16.0099 72.1291 16.3461 72.1675 16.5754 72.2081L16.7973 72.2391C24.1251 72.942 47.1004 73.2883 48.0745 73.3023L48.1038 73.3031L48.1331 73.3023C48.325 73.3016 67.4909 73.1746 80.1823 72.2442L80.35 72.2265C80.5104 72.2051 80.6906 72.1859 80.8884 72.1652C82.9582 71.9437 87.2663 71.4837 91.0858 67.2469C94.2682 63.7596 95.1888 56.979 95.2826 56.2178L95.2936 56.1188C95.3221 55.794 96.0004 48.0779 96.0004 40.3309V33.0889C95.9996 25.3418 95.3221 17.6258 95.2936 17.3009ZM90.3739 40.3309C90.3739 47.5012 89.7528 54.8857 89.6942 55.5636C89.4555 57.4309 88.485 61.7209 86.9345 63.4199C84.5439 66.0714 82.0881 66.3343 80.2951 66.5255C80.0783 66.5484 79.8776 66.5706 79.696 66.5935C67.4206 67.4884 48.9776 67.6257 48.128 67.6309C47.1751 67.6168 24.536 67.2676 17.4316 66.6023C17.0676 66.5425 16.6742 66.4967 16.2597 66.4495C14.1569 66.2065 11.2785 65.8743 9.06515 63.4199L9.01315 63.3638C7.48972 61.7637 6.54709 57.7521 6.30759 55.5857C6.26291 55.0733 5.62571 47.6017 5.62571 40.3309V33.0889C5.62571 25.9266 6.24534 18.5502 6.30539 17.8584C6.59031 15.6588 7.57907 11.6287 9.06515 9.99984C11.529 7.26784 14.1269 6.96511 15.8452 6.76501C16.0092 6.74581 16.1623 6.72809 16.3036 6.70963C28.7577 5.81029 47.3333 5.67664 47.9998 5.67147C48.6663 5.6759 67.2353 5.81029 79.5788 6.70963C79.7304 6.72883 79.8959 6.74802 80.0739 6.7687C81.8412 6.97175 84.5124 7.27892 86.9638 9.91492L86.9865 9.93929C88.5099 11.5394 89.4525 15.6211 89.692 17.8311C89.7345 18.3147 90.3739 25.8026 90.3739 33.0889V40.3309Z" fill="#330A8B"/>
</svg>
