<svg width="88" height="86" viewBox="0 0 88 86" fill="none" xmlns="http://www.w3.org/2000/svg">
<path d="M82.913 41.6779C79.4634 38.7267 74.5905 38.3881 71.2229 38.3881C69.4928 38.3881 67.8182 38.4939 66.2389 38.5974C66.1172 38.5974 65.8791 38.5363 65.6728 38.4728C65.3421 38.3834 64.9453 38.2753 64.4955 38.2541C62.8924 37.946 61.6438 37.6474 60.4745 36.8267C58.0883 34.9385 55.9958 32.5846 53.9694 30.3108L52.5144 28.6929C49.8637 25.8453 46.6151 22.0688 44.9934 18.0077C44.139 15.9784 43.7898 13.8291 43.9115 11.2307C43.9273 10.7346 43.9644 10.2572 43.9908 9.79162C44.1125 7.90337 44.2289 6.12094 43.5358 4.28677C42.557 1.56139 40.1444 0 36.9143 0C34.7397 0 32.4567 0.733666 30.7213 1.95879C26.3696 4.6489 23.5734 9.74694 23.2295 15.6116C23.0522 18.899 24.1792 21.7254 25.2691 24.4555C26.2188 26.8376 27.1183 29.0809 27.1077 31.51C27.0971 35.1924 23.5178 36.2177 18.4545 37.2618C17.9016 37.377 17.354 37.4899 16.9254 37.5886C16.3461 37.6827 15.7562 37.7697 15.1583 37.859C11.3594 38.4187 7.05798 39.0607 3.94166 41.699C1.58988 43.7754 0.47086 47.2015 1.09254 50.4301C1.53961 52.7581 2.83058 54.6746 4.69561 55.8127C3.52104 59.7726 5.70352 64.3862 9.93621 66.8483C9.53146 68.6401 9.90975 70.6647 11.0314 72.5577C12.2906 74.674 14.2826 76.3295 16.5101 77.1172C16.5154 80.7456 19.301 83.906 23.6871 85.0065C24.9067 85.2275 26.2294 85.3333 27.732 85.3333C29.9542 85.3333 32.1763 85.1029 34.3244 84.8889C35.044 84.816 35.7556 84.7455 36.5836 84.6632C37.8508 84.4327 39.1735 84.2869 40.5041 84.1341C43.2475 83.8213 46.0754 83.4992 48.6388 82.5163C50.7155 81.6932 52.5514 80.5057 54.3159 79.3605C54.8926 78.989 55.4588 78.6222 56.0407 78.2577C56.6122 77.8956 57.1915 77.4182 57.7788 76.9221C58.7999 76.0685 59.8502 75.1866 60.8687 75.0126C61.776 74.8574 62.6385 74.7728 63.4744 74.6952C64.4109 74.6035 65.313 74.5165 66.2019 74.3519H66.641C67.5775 74.3519 68.6065 74.4013 69.6753 74.4624C70.8895 74.5259 72.1541 74.5964 73.4053 74.5964C76.4873 74.5964 80.3496 74.2484 82.839 71.523C86.5082 67.6525 87.0346 61.7549 87.0611 55.9632V55.7116C87.1219 51.4624 87.1616 45.0358 82.913 41.6779ZM68.9531 64.9412C68.0007 68.0052 66.1436 69.2679 62.2125 69.5901C60.993 69.5901 59.493 69.5901 58.0804 70.3614C56.5831 70.7282 55.3794 71.7394 54.3027 72.6353C53.8847 72.988 53.472 73.3384 53.0885 73.6041C52.5673 73.9404 52.0382 74.2978 51.4933 74.6599C49.8663 75.7581 48.1759 76.8915 46.668 77.5499C45.75 77.7568 44.7157 77.9591 43.6734 78.1707L41.6628 78.5751C37.4487 79.25 33.0811 79.6051 28.9701 79.9296C27.5892 79.9296 26.1606 79.9296 24.7268 79.5886C23.9173 79.4969 23.3221 79.1701 22.9464 78.6151C22.4279 77.8532 22.3803 76.7175 22.7983 75.7251C23.1369 75.0409 23.0734 74.2978 22.629 73.6911C21.9517 72.7599 20.5893 72.3555 19.5444 72.3555H19.4068L19.2719 72.379C19.1476 72.4072 19.0285 72.4166 18.9095 72.4166C18.055 72.4166 17.1767 71.7817 16.5577 70.7306C15.78 69.3949 15.6741 67.7771 16.2376 67.0599C16.8884 66.3803 16.9942 65.3927 16.5207 64.4827C16.1027 63.6831 15.3435 63.1611 14.4943 63.0624C12.4996 62.4604 11.2087 61.3481 10.6558 59.782C10.2484 58.4605 10.3568 56.9485 11.042 56.2219C11.6954 55.2577 11.8462 54.1314 11.4467 53.2331C11.1161 52.4947 10.4335 51.9562 9.40977 51.6999C7.51035 51.3919 6.94158 50.0233 6.79608 48.9111C6.48657 46.8723 8.24578 45.3203 9.90182 44.5843C12.4388 43.3216 15.5445 42.8701 18.5524 42.4327C20.1634 42.1975 21.8274 41.96 23.4041 41.5979C28.7928 40.354 32.6631 36.608 33.0361 32.2766C33.298 29.0927 32.1657 26.1651 31.0758 23.3456C30.1473 20.9518 29.2743 18.6944 29.2002 16.3147C29.1235 14.0173 29.8722 11.4823 31.3086 9.0603C32.6843 7.15089 34.999 5.09569 36.8376 5.09569C36.9302 5.09569 37.0254 5.10274 37.1021 5.1145C38.237 5.26029 38.2026 7.17676 38.0783 8.96154L38.0492 9.40362C37.8825 12.3359 37.8111 14.805 38.5597 17.6644C39.6153 21.5444 42.0993 24.693 44.4935 27.7382C45.0146 28.4013 45.541 29.0668 46.0701 29.7605C48.324 32.6458 51.1917 35.785 54.3106 38.7949C54.8979 39.4275 55.5461 40.1259 56.3317 40.6079C56.5434 40.9513 56.8264 41.13 57.0989 41.217C59.038 42.5409 61.112 43.3098 63.7442 43.6907C65.6516 44.0129 67.2918 44.281 68.1198 45.5202C69.7785 48.1327 69.8287 51.7305 69.8631 54.604L69.8711 55.2883C69.9266 58.3429 69.8949 61.8607 68.9531 64.9412ZM81.1221 54.8274L81.1168 55.9561C81.1406 60.3887 80.8284 64.913 78.3946 68.0499C77.5772 69.1621 75.9423 69.2444 73.7175 69.2444H73.4794C74.736 66.9752 75.2228 64.3345 75.5243 61.9383C76.0455 57.5763 75.9926 53.3084 75.3603 49.252C75.0878 47.4743 74.6699 45.532 73.7175 43.8083C75.5217 43.9847 77.3735 44.4268 78.7862 45.4967C81.1988 47.2815 81.1512 51.8246 81.1221 54.8274Z" fill="#330A8B"/>
</svg>
